# xmcd
#
# Track frame offsets: 
#        150
#        16677
#        35398
#        55745
#        66152
#        80925
#        95606
#        115210
#        130458
#        146475
#        164217
#        182668
#        198975
#        215250
#        224627
#        241282
#
# Disc length: 3299 seconds
#
# Revision: 0
# Processed by: cddbd v1.5.2PL0 Copyright (c) Steve Scherf et al.
# Submitted via: ExactAudioCopy v1.3
#
DISCID=f10ce110
DTITLE=Various Artist - Country Faith Christmas
DYEAR=2018
DGENRE=Christmas
TTITLE0=Hark! The Herald Angels Sing - Carrie Underwood
TTITLE1=There's a New Kid in Town - Chris Young
TTITLE2=Do Not Be Afraid - John Berry
TTITLE3=Have Yourself a Merry Little Christmas - Kelsea Ballerini
TTITLE4=Little Drummer Boy - Hank Williams Jr
TTITLE5=What Child is This - Phil Vassar
TTITLE6=Mary, Did You Know - Dylan Scott
TTITLE7=Do You Hear What I Hear - Liddy Clark
TTITLE8=Let's Make a Baby Ring - Wynonna
TTITLE9=A Soldier's King - Kenny Rogers
TTITLE10=Christmas Eve in Bethlehem - Hannah Kerr
TTITLE11=I'll Be Home for Christmas - Rodney Atkins
TTITLE12=What God Wants for Christmas - Darius Rucker
TTITLE13=Rockin Around the Christmas Tree - Brenda Lee
TTITLE14=Merry Christmas and a Happy New Year - Bellamy Brothers
TTITLE15=The Christmas Story for the Book of Luke - Charlie Daniels
EXTD=
EXTT0=
EXTT1=
EXTT2=
EXTT3=
EXTT4=
EXTT5=
EXTT6=
EXTT7=
EXTT8=
EXTT9=
EXTT10=
EXTT11=
EXTT12=
EXTT13=
EXTT14=
EXTT15=
PLAYORDER=
